<?xml version="1.0" encoding="UTF-8" standalone="no"?>
<!-- Created with Inkscape (http://www.inkscape.org/) -->

<svg
   version="1.1"
   id="svg222"
   width="557.58868"
   height="560.56958"
   viewBox="0 0 557.58867 560.56957"
   sodipodi:docname="munchy_cow.png"
   inkscape:export-filename="../Pictures/muncy/munchy_cow_head.svg"
   inkscape:export-xdpi="96"
   inkscape:export-ydpi="96"
   xmlns:inkscape="http://www.inkscape.org/namespaces/inkscape"
   xmlns:sodipodi="http://sodipodi.sourceforge.net/DTD/sodipodi-0.dtd"
   xmlns="http://www.w3.org/2000/svg"
   xmlns:svg="http://www.w3.org/2000/svg">
  <defs
     id="defs226" />
  <sodipodi:namedview
     id="namedview224"
     pagecolor="#ffffff"
     bordercolor="#000000"
     borderopacity="0.25"
     inkscape:showpageshadow="2"
     inkscape:pageopacity="0.0"
     inkscape:pagecheckerboard="0"
     inkscape:deskcolor="#d1d1d1"
     showgrid="false" />
  <g
     inkscape:groupmode="layer"
     inkscape:label="Image"
     id="g228"
     transform="translate(-108.11595,-214.19931)">
    <path
       style="fill:#9333ea;fill-opacity:1"
       d="m 496.25404,669.1409 c -7.79834,-7.857 -4.52396,-4.0227 -9.00452,-11.27235 l 3.54594,-3.03522 c 0.81118,-0.69434 2.767,-1.86215 3.2044,-1.87438 1.3598,-0.038 14.9636,-9.57027 19.9236,-13.96047 6.5226,-5.77342 16.0617,-18.70601 20.1691,-27.34404 5.2453,-11.03128 7.0102,-20.74923 6.2914,-34.64184 -0.7439,-14.37885 -2.4815,-20.88634 -8.9374,-33.47065 -5.7834,-11.27356 -13.4343,-21.33642 -23.0038,-30.25588 -16.8675,-15.72181 -29.1137,-23.5173 -56.2691,-35.81892 -22.0752,-10.00025 -46.5501,-16.70055 -77.469,-21.20811 -17.3834,-2.53427 -59.2083,-2.55182 -73,-0.0306 -22.718,4.15297 -41.7252,11.54176 -59.1292,22.98576 -14.7914,9.726 -22.4538,17.87777 -28.40847,30.22254 -8.17308,16.9439 -8.88705,19.98802 -8.9125,38 -0.0245,17.32289 -0.47767,15.20887 7.51979,35.07776 1.16187,2.88657 0.97636,3.46428 -2.98631,9.29956 -2.32382,3.42198 -4.47888,7.78541 -4.789,9.69652 -0.31013,1.9111 -0.93373,3.70331 -1.38578,3.98269 -1.47736,0.91306 -9.88875,-14.84677 -12.83953,-24.05653 -8.59767,-26.83436 -7.65914,-51.6423 2.79792,-73.95709 8.42828,-17.98547 19.0193,-30.2315 42.13308,-48.71702 l 9.5,-7.59773 3.3635,-9.86408 c 3.7619,-11.03235 22.5168,-57.22547 26.1902,-64.50627 1.2847,-2.54628 0.3663,-2.69555 -6.3303,-1.02875 -9.9702,2.48159 -28.4746,2.12757 -37.7113,-0.7215 -9.5128,-2.93423 -13.8874,-5.15522 -22.1687,-11.25519 -8.292,-6.10783 -12.57354,-10.81539 -19.28315,-21.20186 -8.69293,-13.45664 -9.58217,-18.56192 -4.17494,-23.96915 3.85788,-3.85788 16.33398,-9.40274 27.61469,-12.27304 8.9416,-2.27513 32.6566,-2.578 40,-0.51085 8.0638,2.26993 22.3587,8.38345 28.8601,12.3426 3.498,2.13021 6.5276,3.70555 6.7324,3.50074 0.2048,-0.2048 -1.1645,-3.26777 -3.043,-6.80659 -1.8785,-3.53882 -4.6449,-10.48422 -6.1477,-15.43422 -3.7425,-12.32761 -3.9976,-29.79536 -0.6205,-42.5 3.3308,-12.53089 8.9924,-23.291 16.6585,-31.66044 7.9764,-8.70819 13.7593,-11.88258 19.8701,-10.90724 8.8772,1.41686 11.9009,6.27245 13.6278,21.88433 0.5973,5.39916 2.0061,12.54812 3.1308,15.88657 3.9489,11.72214 13.2045,23.50245 22.6567,28.83694 6.3379,3.5769 6.4022,3.57688 26.2748,-0.009 10.7112,-1.93303 14.7897,-2.18438 28.5,-1.7564 16.3724,0.51109 27.4248,2.21608 47.9884,7.40293 12.8826,3.24945 19.4193,5.74919 33.4728,12.80062 10.6537,5.34557 11.8162,5.70903 16.5,5.1589 6.7385,-0.79146 17.9556,-6.46149 23.7302,-11.99512 6.1172,-5.862 9.1714,-10.82519 14.526,-23.60582 4.8838,-11.65701 7.9617,-16.30138 12.2846,-18.53684 11.3604,-5.87466 22.7908,4.95253 29.4355,27.88209 4.7454,16.37533 4.341,30.53081 -1.3583,47.54184 -3.459,10.32452 -8.28,18.85972 -14.6624,25.95846 -2.5697,2.85813 -4.4472,5.42157 -4.1723,5.69654 0.275,0.27497 3.82,-0.461 7.8777,-1.63549 10.65,-3.08253 30.6205,-3.76504 43.3105,-1.48016 21.7561,3.91727 47.5673,22.12105 47.5673,33.54759 0,3.46613 -2.4693,7.16988 -9.1479,13.72135 -13.2045,12.9531 -23.4483,18.95361 -37.0599,21.70871 -17.1866,3.47868 -36.8081,0.71458 -52.784,-7.4357 -4.6445,-2.36943 -2.88918,-1.40689 -4.5835,4.34255 -1.70659,5.79106 -0.73611,0.44588 -1.20798,7.64582 32.05298,257.698 -61.88749,236.62316 -64.66734,241.21113 z M 423.96006,443.32908 c -2.9796,-23.05633 0.4047,-47.86445 9.8075,-71.89237 6.6161,-16.90668 21.1977,-36.81485 36.2166,-49.44605 4.1908,-3.52453 7.4101,-6.74722 7.154,-7.16153 -0.256,-0.41431 -5.1586,-2.58817 -10.8945,-4.8308 -23.3267,-9.1203 -52.4257,-13.27807 -76.8198,-10.97633 -9.6213,0.90783 -20.1301,3.49996 -21.6593,5.34251 -0.6484,0.78129 -0.2967,3.33049 1.0518,7.62301 5.9826,19.04428 7.3039,27.54388 7.2989,46.94919 -0.01,26.21766 -2.2108,35.9417 -14.7314,64.99484 -2.4876,5.77216 -4.4303,10.5874 -4.3171,10.70054 0.1131,0.11315 5.3654,0.69446 11.6718,1.2918 12.2342,1.15885 33.6549,4.85078 45.9661,7.92243 8.5984,2.14532 9.5924,2.08978 9.2554,-0.51724 z m 73.4326,-14.10272 c 0.7397,-5.51486 -2.0611,-14.50603 -5.87,-18.84411 -5.0553,-5.75766 -10.1096,-7.87462 -18.8918,-7.9127 -6.7177,-0.0291 -8.1286,0.30982 -12.4812,2.99828 -2.699,1.66711 -5.9292,4.54758 -7.1783,6.40104 -4.2142,6.2535 -5.272,15.06784 -1.8082,15.06784 0.7281,0 3.4484,-1.75569 6.0451,-3.90154 6.595,-5.44978 12.1452,-6.88622 17.987,-4.65522 4.3968,1.67918 12.5094,9.49479 12.5094,12.05153 0,0.66725 1.1619,2.46695 2.5821,3.99932 2.5792,2.78305 2.5843,2.78393 4.5755,0.79277 1.0963,-1.09635 2.235,-3.79509 2.5304,-5.99721 z m -151.6002,-20.45369 c 2.8785,-5.37848 -1.4776,-18.85104 -7.6701,-23.72203 -3.4646,-2.72523 -12.728,-6.11393 -16.7132,-6.11393 -3.8954,0 -12.0138,4.0968 -16.4421,8.29731 -3.9966,3.79098 -6.5072,10.09472 -6.083,15.27339 0.4636,5.65791 2.7598,5.54577 9.0932,-0.44408 6.0327,-5.70545 9.0523,-7.12662 15.1425,-7.12662 5.4299,0 10.7398,3.6918 15.5849,10.83558 3.8324,5.65072 5.3301,6.28469 7.0878,3.00038 z m 207.7156,-66.36926 c 15.8941,-16.988 20.6075,-32.2518 16.7419,-54.21694 -1.6203,-9.20702 -5.087,-18.12931 -6.48,-16.67741 -0.4894,0.51021 -2.0688,4.46748 -3.5096,8.79394 -5.0642,15.2068 -19.131,30.97748 -34.3057,38.4612 -2.8875,1.42403 -5.25,2.97445 -5.25,3.44539 0,0.47093 1.4338,2.06273 3.1863,3.53733 3.6819,3.09812 14.3397,17.16047 16.628,21.93979 0.8661,1.8088 2.3209,3.25 3.2807,3.25 0.9485,0 5.3173,-3.83998 9.7084,-8.5333 z m -235.4518,-33.23496 c 4.6396,-3.72255 11.4086,-8.50686 15.042,-10.63181 3.6335,-2.12495 6.6064,-3.94551 6.6064,-4.04571 0,-0.10019 -3.9375,-4.21434 -8.75,-9.14255 -5.1176,-5.24063 -10.076,-11.45566 -11.9441,-14.97114 -3.7535,-7.06347 -6.915,-18.20685 -7.8683,-27.7335 -0.4351,-4.34777 -1.0862,-6.66079 -1.8087,-6.42578 -1.8616,0.60552 -9.3866,13.56134 -11.68,20.10943 -2.7108,7.74012 -3.6284,22.65185 -1.9913,32.35809 1.3152,7.79709 6.15,18.87209 10.4779,24.00123 1.5083,1.7875 2.9084,3.25 3.1113,3.25 0.203,0 4.1651,-3.04572 8.8048,-6.76826 z m -63.5493,463.57861 c -2.0338,-1.17904 -4.1536,-3.3062 -4.7107,-4.72703 -0.5571,-1.42083 -2.8655,-14.50832 -5.1296,-29.08332 -11.6431,-74.95046 -13.9412,-89.35923 -14.5664,-91.32892 -0.8021,-2.52728 -0.5252,-3.47036 -9.8562,33.56455 -3.56624,14.1546 -7.38635,27.5042 -8.48911,29.66579 -2.80765,5.50345 -6.81456,8.09858 -12.50432,8.09858 -9.22826,0 -12.62164,-3.69783 -16.97686,-18.5 -3.38767,-11.51374 -11.904,-35.49948 -12.60448,-35.49978 -0.29445,-1.2e-4 -1.98061,2.93058 -3.74702,6.51266 -5.15378,10.45134 -5.58633,10.59506 -30.88932,10.26407 -20.58365,-0.26926 -21.24025,-0.34139 -23.63901,-2.59699 -4.92257,-4.62878 -4.21276,-11.65332 1.53579,-15.19899 2.95971,-1.82553 4.85413,-2.00924 19.68168,-1.9086 l 16.40675,0.11136 4.49157,-8.67583 c 3.31293,-6.39919 5.4975,-9.34152 8.32495,-11.21264 7.66457,-5.07217 16.79831,-3.58614 21.53316,3.50337 1.21167,1.81424 4.97994,11.62995 8.37392,21.81268 3.39398,10.18273 6.29701,18.37334 6.45118,18.20137 0.26442,-0.29495 3.41769,-12.91764 15.5663,-62.31268 2.8407,-11.55 5.60402,-21.82983 6.14072,-22.84406 0.5366,-1.01424 2.957,-2.72049 5.3786,-3.79167 3.6755,-1.62581 5.0537,-1.77237 8.3415,-0.88705 4.136,1.1137 8.7212,5.58745 9.5828,9.34985 0.4639,2.02547 4.253,25.34396 12.9463,79.67293 4.1854,26.15668 4.5886,28.30021 5.2073,27.68153 0.5632,-0.56322 2.2546,-12.51172 6.3249,-44.68153 1.705,-13.475 4.6577,-36.15146 6.5616,-50.39214 1.9039,-14.24067 3.4617,-27.12719 3.4617,-28.63671 0,-2.29395 -1.3483,-3.70724 -8.2119,-8.60786 -9.6914,-6.91965 -14.7881,-13.05648 -14.7881,-17.80617 0,-6.54362 6.3656,-10.88943 12.5219,-8.5488 1.5781,0.60001 5.5938,3.44807 8.9237,6.32901 23.347,20.19914 51.053,32.44308 83.1273,36.73584 17.5731,2.35194 47.5362,-0.0866 64.1863,-5.22371 6.5531,-2.02187 25.0493,-10.6157 27.8494,-12.93963 0.982,-0.81494 1.3914,-3.57308 1.3914,-9.37334 0,-9.81726 1.8944,-16.77307 5.6301,-20.67227 3.3754,-3.5232 6.6777,-3.6473 9.9511,-0.37394 2.1927,2.19269 2.4153,3.05906 1.8627,7.25 -0.9858,7.47677 1.1453,19.89014 4.6429,27.04421 2.335,4.77597 4.5838,7.49561 9.3688,11.33004 11.1055,8.89937 11.4745,15.75366 0.9389,17.43838 -5.6748,0.90743 -14.7482,-3.74164 -20.4123,-10.45893 l -4.1827,-4.96052 -9.2835,4.96029 c -19.2245,10.27188 -43.3771,16.08587 -66.8376,16.08905 -10.333,10e-4 -12.7213,0.26296 -12.3051,1.34761 0.284,0.74023 1.7053,6.88621 3.1582,13.65773 1.453,6.77152 4.4563,19.51186 6.6741,28.31186 2.2178,8.8 4.5046,17.9125 5.0818,20.25 0.5773,2.3375 1.3112,4.24271 1.6311,4.2338 0.3198,-0.009 3.2192,-8.89641 6.443,-19.75 8.202,-27.61355 10.4665,-33.20127 14.5781,-35.97206 4.2178,-2.84238 10.3942,-2.96531 14.7753,-0.29406 3.781,2.30542 7.1425,8.50499 12.2174,22.53232 l 3.6178,10 15.7995,0.27577 c 17.5453,0.30625 19.824,1.00216 22.2436,6.79314 0.9712,2.32436 1.0571,4.11376 0.3247,6.76611 -1.7675,6.40153 -2.8231,6.66498 -26.7061,6.66498 -12.7262,0 -22.12,-0.41571 -23.2672,-1.02964 -2.3457,-1.25541 -4.5275,-5.34441 -7.4081,-13.8839 -1.2001,-3.55755 -2.6239,-6.61559 -3.164,-6.79564 -0.5402,-0.18005 -2.4997,5.19336 -4.3545,11.94091 -12.032,43.77104 -12.6189,45.3347 -18.3223,48.81227 -9.6398,5.87775 -19.8273,-1.513 -22.6423,-16.42636 -0.9861,-5.22376 -7.6529,-30.6086 -12.7063,-48.38049 -1.6367,-5.75578 -2.7505,-6.06188 -3.6804,-1.01143 -4.8753,26.47689 -16.6109,81.8861 -17.9199,84.6074 -1.9312,4.01515 -7.3667,7.16688 -12.3599,7.16688 -3.4277,0 -5.0655,-0.65696 -7.9484,-3.18812 -4.6144,-4.05148 -5.0049,-5.16008 -7.4343,-21.10551 -1.1067,-7.2635 -3.5583,-21.98137 -5.448,-32.70637 -1.8898,-10.725 -5.1011,-29.98939 -7.1363,-42.80976 -2.0352,-12.82037 -4.0602,-22.94537 -4.4999,-22.5 -0.4397,0.44537 -1.977,10.93476 -3.4162,23.30976 -1.4392,12.375 -4.1428,33.975 -6.0081,48 -1.8652,14.025 -3.8774,29.775 -4.4715,35 -3.2334,28.43628 -4.6676,36.9487 -6.5881,39.10367 -4.5001,5.04931 -12.5708,6.22163 -18.6338,2.70668 z m 76.155,-91.43635 c 1.5796,-7.6307 3.8505,-17.699 5.0465,-22.374 1.9636,-7.67578 8.9962,-41.90976 8.9962,-43.79287 0,-0.42521 -3.2625,-1.37423 -7.25,-2.10892 -3.9875,-0.73469 -11.075,-2.58532 -15.75,-4.11253 -4.675,-1.5272 -8.6998,-2.58644 -8.944,-2.35387 -0.7402,0.70491 4.8889,38.35307 9.5495,63.86819 2.4111,13.2 4.3862,24.4125 4.3891,24.91667 0.018,3.14982 1.4647,-1.97543 3.9627,-14.04267 z m 77.1153,-151.00886 c -2.5449,-3.23523 -2.5965,-6.61506 -0.1822,-11.93052 4.4629,-9.82592 12.8051,-15.76806 22.2831,-15.87225 6.8319,-0.0751 10.6072,2.26617 12.7553,7.91015 3.0418,7.99204 -3.4008,16.52748 -12.4751,16.52748 -2.7889,0 -6.2119,1.03167 -9.9537,3 -7.0334,3.69977 -9.7418,3.77935 -12.4274,0.36514 z m -104.4075,-15.31969 c -2.3596,-2.175 -6.9541,-5.4523 -10.21,-7.28289 -10.9196,-6.13945 -13.2537,-13.19923 -6.5727,-19.88021 3.3965,-3.39653 4.4642,-3.88235 8.5321,-3.88235 2.5573,0 6.0978,0.60621 7.8676,1.34713 10.6797,4.47094 17.448,23.0664 11.129,30.57614 -3.4151,4.05861 -5.5827,3.88154 -10.746,-0.87782 z"
       id="path404"
       sodipodi:nodetypes="ccsssssssssscssssssssscssssssssssssccssccscsssssssssssssssssscccsscsssccscsscsssscscsscsssssscsssssssssssssscssssssccsscsscssssssssssscsssssscssssssssssssssssssssssscscssssssssscsscssssssssccssssssssscsssssssscsssssssssssssss" />
  </g>
</svg>
